<svg xmlns="http://www.w3.org/2000/svg" version="1.1" xmlns:xlink="http://www.w3.org/1999/xlink" xmlns:svgjs="http://svgjs.dev/svgjs" width="1000" height="1000" viewBox="0 0 1000 1000"><rect width="1000" height="1000" fill="#0718c4"></rect><g transform="matrix(0.7,0,0,0.7,150,218.95000000000005)"><svg viewBox="0 0 448 360" data-background-color="#0718c4" preserveAspectRatio="xMidYMid meet" height="803" width="1000" xmlns="http://www.w3.org/2000/svg" xmlns:xlink="http://www.w3.org/1999/xlink"><defs></defs><g id="tight-bounds" transform="matrix(1,0,0,1,0,0)"><svg viewBox="0 0 448 360" height="360" width="448"><g><svg></svg></g><g><svg viewBox="0 0 448 360" height="360" width="448"><g><path d="M193.855 44.683c1.378 0 2.494 1.116 2.495 2.494 0 1.378-1.116 2.494-2.495 2.495h-23.846l-17.167 17.167c-0.973 0.973-2.551 0.973-3.53 0-0.973-0.973-0.973-2.551 0-3.529l13.644-13.645h-40.378c-11.518 0-19.151 2.688-23.815 8.113-4.739 5.519-6.66 14.056-6.66 25.63 0 0.069 0 0.137-0.006 0.206l0.212 36.692 14.692-14.692c0.973-0.973 2.551-0.973 3.53 0 0.973 0.973 0.973 2.551 0 3.53l-18.178 18.178c0.206 35.832 0.193 71.358-0.013 107.19 25.486 25.2 50.617 50.312 75.811 75.791h25.38c1.378 0 2.494 1.116 2.495 2.495 0 1.378-1.116 2.494-2.495 2.494h-20.448l25.942 26.241 0.006-0.006c8.188 8.188 15.577 12.859 22.824 13.413 7.146 0.543 14.442-2.956 22.586-11.093l28.555-28.555h-20.722c-1.378 0-2.494-1.116-2.495-2.494 0-1.378 1.116-2.494 2.495-2.495h25.711l16.625-16.625c0.973-0.973 2.551-0.973 3.529 0 0.973 0.973 0.973 2.551 0 3.53l-13.101 13.102h40.377c11.518 0 19.151-2.688 23.815-8.113 4.739-5.519 6.66-14.056 6.66-25.63h0.013l-0.212-36.898-16.014 16.014c-0.973 0.973-2.551 0.973-3.53 0-0.973-0.973-0.973-2.551 0-3.53l19.5-19.5c-0.206-35.832-0.193-71.358 0.013-107.19-25.486-25.2-50.617-50.312-75.811-75.791h-26.147c-1.378 0-2.494-1.116-2.495-2.495 0-1.378 1.116-2.494 2.495-2.494h21.215l-25.824-26.123c-0.044-0.037-0.081-0.075-0.124-0.112-8.188-8.188-15.577-12.859-22.824-13.413-7.146-0.543-14.442 2.956-22.586 11.093l-28.555 28.555h18.858zM122.578 44.683h45.367l32.078-32.078c9.248-9.248 17.81-13.195 26.484-12.534 8.568 0.649 16.956 5.824 25.985 14.854 0.05 0.05 0.094 0.094 0.137 0.143l29.278 29.615h43.508c13.071 0 21.919 3.268 27.594 9.871 5.6 6.517 7.864 16.101 7.864 28.867 0 0.081-0.006 0.156-0.012 0.23l-0.225 39.742 28.43 28.112 0.006-0.006c9.03 9.03 14.206 17.411 14.854 25.985 0.661 8.674-3.293 17.236-12.534 26.484l-30.768 30.768 0.237 41.843h0.012c0 12.765-2.27 22.35-7.864 28.867-5.675 6.604-14.524 9.872-27.594 9.871h-45.366l-32.078 32.078c-9.248 9.248-17.81 13.195-26.484 12.534-8.568-0.649-16.956-5.824-25.985-14.854l0.006-0.006-29.421-29.758h-43.509c-13.071 0-21.919-3.268-27.594-9.872-5.6-6.517-7.864-16.101-7.863-28.866h0.012l0.231-39.972-28.293-27.969c-0.05-0.044-0.1-0.087-0.143-0.137-9.03-9.03-14.206-17.411-14.854-25.985-0.661-8.674 3.293-17.236 12.534-26.484l30.768-30.768-0.237-41.607c-0.006-0.075-0.012-0.156-0.012-0.23 0-12.765 2.27-22.35 7.864-28.867 5.675-6.604 14.524-9.872 27.594-9.871zM87.682 179.997l-0.274-47.724-27.276 27.276c-8.138 8.138-11.636 15.44-11.094 22.587 0.549 7.246 5.226 14.642 13.413 22.823 0.037 0.037 0.081 0.081 0.113 0.125l24.837 24.551 0.281-49.644zM92.303 241.483l-0.2 35.09h0.013c0 11.58 1.921 20.117 6.66 25.63 4.664 5.432 12.297 8.113 23.815 8.113h38.576l-33.55-33.936-35.308-34.903zM325.415 49.672h-38.575l33.549 33.936 35.308 34.902 0.2-34.884c-0.006-0.069-0.006-0.137-0.007-0.205 0-11.58-1.921-20.117-6.66-25.63-4.664-5.432-12.297-8.113-23.815-8.113zM360.599 130.352l-0.281 49.645 0.274 47.724 27.276-27.276c8.138-8.138 11.636-15.44 11.094-22.587-0.549-7.252-5.226-14.642-13.413-22.824l0.006-0.006-24.956-24.669z" fill="#8dbdff" data-fill-palette-color="tertiary"></path></g><g transform="matrix(1,0,0,1,159.4900367945716,90)"><svg viewBox="0 0 129.01992641085678 180" height="180" width="129.01992641085678"><g><svg viewBox="0 0 178.88760000000002 249.57205368000004" height="180" width="129.01992641085678"><g><svg viewBox="0 0 178.88760000000002 249.57205368000004" height="249.57205368000004" width="178.88760000000002"><g><svg viewBox="0 0 178.88760000000002 249.57205368000004" height="249.57205368000004" width="178.88760000000002"><g><svg viewBox="0 0 178.88760000000002 178.88760000000002" height="178.88760000000002" width="178.88760000000002"><g transform="matrix(1,0,0,1,62.09404107455425,47.27958832327113)"><svg viewBox="0 0 54.699517850891525 84.32842335345777" height="84.32842335345777" width="54.699517850891525"><g><svg xmlns="http://www.w3.org/2000/svg" xmlns:xlink="http://www.w3.org/1999/xlink" version="1.1" x="0" y="0" viewBox="6 2 12 18.5" style="enable-background:new 0 0 24 24;" xml:space="preserve" height="84.32842335345777" width="54.699517850891525" class="icon-o-0" data-fill-palette-color="accent" id="o-0"><g fill="#4089ef" data-fill-palette-color="accent"><path d="M12 2C8.686 2 6 3.119 6 4.5V18c0 1.381 2.686 2.5 6 2.5s6-1.119 6-2.5V4.5C18 3.119 15.314 2 12 2zM17 18c0 0.385-1.719 1.5-5 1.5S7 18.385 7 18v-2.619C8.075 16.055 9.912 16.5 12 16.5s3.925-0.445 5-1.119V18zM17 14c0 0.385-1.719 1.5-5 1.5S7 14.385 7 14v-2.619C8.075 12.055 9.912 12.5 12 12.5s3.925-0.445 5-1.119V14zM17 10c0 0.385-1.719 1.5-5 1.5S7 10.385 7 10V7.381C8.075 8.055 9.912 8.5 12 8.5s3.925-0.445 5-1.119V10zM17 6c0 0.385-1.719 1.5-5 1.5S7 6.385 7 6V4.5C7 4.115 8.719 3 12 3s5 1.115 5 1.5V6z" fill="#4089ef" data-fill-palette-color="accent"></path></g></svg></g></svg></g><path d="M22.325 61.336l-3.443 9.833c-0.136 0.389-0.325 0.668-0.567 0.836v0c-0.339 0.163-0.64 0.198-0.903 0.106-0.27-0.094-0.502-0.257-0.696-0.486v0l-10.048-13.901-2.978 8.506c-0.094 0.27-0.262 0.447-0.503 0.532-0.237 0.093-0.465 0.101-0.684 0.024-0.213-0.075-0.386-0.216-0.517-0.424-0.138-0.21-0.156-0.46-0.055-0.748v0l3.518-10.049c0.116-0.332 0.304-0.566 0.562-0.701 0.254-0.143 0.485-0.179 0.693-0.106v0c0.37 0.13 0.646 0.328 0.826 0.596v0l10.072 13.951 3.001-8.572c0.116-0.332 0.286-0.526 0.51-0.582 0.226-0.062 0.455-0.052 0.687 0.03 0.226 0.079 0.395 0.219 0.507 0.42 0.113 0.201 0.118 0.446 0.018 0.735zM31.782 45.485l-5.194 8.085c-0.14 0.218-0.33 0.353-0.568 0.405v0c-0.389 0.114-0.701 0.095-0.936-0.056v0l-13.16-8.454c-0.352-0.226-0.511-0.589-0.475-1.087v0c0.035-0.128 0.068-0.26 0.102-0.397v0l5.032-7.834c0.176-0.274 0.389-0.421 0.64-0.442 0.245-0.024 0.462 0.024 0.652 0.146 0.196 0.126 0.326 0.316 0.391 0.572 0.074 0.253 0.036 0.497-0.114 0.732v0l-4.435 6.902 4.974 3.196 4.219-6.568c0.176-0.274 0.384-0.425 0.623-0.453 0.239-0.028 0.459 0.023 0.66 0.152v0c0.179 0.115 0.297 0.294 0.355 0.536 0.052 0.239 0.001 0.478-0.154 0.719v0l-4.219 6.567 5.444 3.497 4.628-7.204c0.165-0.257 0.368-0.395 0.61-0.415 0.245-0.024 0.471 0.03 0.677 0.163 0.201 0.129 0.332 0.308 0.391 0.536 0.056 0.233 0.008 0.467-0.143 0.702zM36.717 38.78l-10.506-11.588c-0.295-0.325-0.345-0.737-0.151-1.235v0c0.054-0.139 0.137-0.259 0.25-0.362v0l3.944-3.576c2.127-1.929 4.073-2.666 5.839-2.212v0c0.68 0.236 1.346 0.713 1.998 1.431 0.652 0.719 0.971 1.541 0.959 2.468-0.017 0.921-0.381 1.866-1.091 2.833v0l0.067 0.074c0.976-0.616 1.86-0.843 2.651-0.682v0c0.642 0.154 1.303 0.537 1.984 1.149 0.69 0.612 1.236 1.091 1.637 1.435v0c0.558 0.517 1.167 1.095 1.828 1.734v0c0.25 0.276 0.349 0.553 0.298 0.833-0.051 0.28-0.183 0.516-0.394 0.708-0.207 0.188-0.447 0.293-0.722 0.317-0.27 0.029-0.531-0.061-0.784-0.271v0c-0.738-0.685-1.391-1.291-1.958-1.818-0.567-0.536-1.06-0.972-1.481-1.307-0.426-0.331-0.812-0.578-1.157-0.742-0.345-0.153-0.681-0.212-1.007-0.176v0c-0.543 0.044-1.306 0.484-2.288 1.321v0l-3.117 2.826 4.848 5.346c0.353 0.389 0.408 0.792 0.167 1.208v0c-0.067 0.124-0.177 0.255-0.33 0.394-0.153 0.138-0.376 0.224-0.669 0.256-0.293 0.033-0.565-0.089-0.815-0.364zM32.371 30.677l2.415-2.19c1.536-1.393 2.351-2.572 2.446-3.536v0c0.076-0.688-0.175-1.385-0.752-2.091v0c-0.866-0.955-1.792-1.264-2.778-0.926v0c-0.563 0.161-1.048 0.403-1.454 0.726-0.411 0.328-0.73 0.595-0.956 0.8v0l-2.999 2.719zM50.334 16.175c0.195 0.906 0.475 1.751 0.84 2.534 0.362 0.777 0.83 1.538 1.403 2.283 0.571 0.738 1.232 1.314 1.982 1.727 0.741 0.41 1.533 0.646 2.375 0.709 0.849 0.059 1.755-0.136 2.719-0.585 0.97-0.452 1.711-1.024 2.224-1.717 0.519-0.696 0.851-1.456 0.996-2.278 0.142-0.829 0.126-1.705-0.047-2.629-0.182-0.927-0.454-1.779-0.817-2.556-0.365-0.783-0.84-1.537-1.427-2.261-0.592-0.721-1.25-1.291-1.972-1.709-0.723-0.419-1.518-0.653-2.385-0.704-0.864-0.06-1.78 0.136-2.75 0.588-0.964 0.449-1.695 1.02-2.193 1.714-0.495 0.685-0.824 1.443-0.987 2.274-0.169 0.834-0.156 1.704 0.039 2.61zM48.929 19.699v0c-0.533-1.145-0.871-2.311-1.013-3.498-0.14-1.181-0.045-2.292 0.285-3.332v0c0.625-2.168 2.118-3.812 4.477-4.933v0c2.41-1.122 4.659-1.22 6.747-0.294v0c0.99 0.426 1.886 1.075 2.689 1.948 0.805 0.879 1.474 1.89 2.007 3.035v0c0.541 1.163 0.895 2.347 1.061 3.553 0.168 1.212 0.093 2.325-0.227 3.338v0c-0.646 2.17-2.174 3.817-4.584 4.939v0c-2.386 1.111-4.599 1.207-6.64 0.288v0c-1.019-0.442-1.939-1.102-2.759-1.981-0.82-0.879-1.501-1.9-2.043-3.063zM79.078 10.864l-4.012 7.898c-0.171 0.354-0.437 0.556-0.799 0.609v0c-0.408 0.059-0.748-0.091-1.021-0.448v0c-0.065-0.125-0.108-0.263-0.13-0.414-0.022-0.151 0.031-0.323 0.157-0.516v0l4.382-8.344-6.125-6.322c-0.15-0.153-0.235-0.305-0.257-0.456-0.022-0.151-0.005-0.291 0.05-0.42 0.055-0.129 0.141-0.255 0.258-0.38v0c0.206-0.251 0.417-0.392 0.634-0.423v0c0.454-0.065 0.834 0.058 1.141 0.37v0l5.593 6.055 3.88-7.416c0.206-0.386 0.461-0.6 0.764-0.643v0c0.434-0.062 0.775 0.087 1.021 0.447v0c0.085 0.122 0.132 0.216 0.141 0.282v0c0.034 0.237-0.024 0.443-0.173 0.619v0l-4.243 7.901 6.504 6.72c0.156 0.152 0.245 0.304 0.267 0.456 0.022 0.151 0.008 0.291-0.041 0.418-0.049 0.128-0.128 0.253-0.238 0.377v0c-0.232 0.255-0.503 0.405-0.812 0.449-0.316 0.045-0.625-0.075-0.928-0.36v0zM98.259 12.346l-4.853-0.338c-0.265-0.019-0.471-0.12-0.619-0.303-0.153-0.191-0.221-0.409-0.204-0.654 0.018-0.252 0.121-0.451 0.312-0.598 0.184-0.154 0.395-0.222 0.634-0.206v0l4.853 0.339c0.259 0.018 0.468 0.116 0.629 0.294 0.168 0.172 0.243 0.383 0.225 0.635-0.017 0.245-0.115 0.452-0.293 0.619-0.171 0.161-0.399 0.232-0.684 0.212zM110.073 20.726l-4.156-1.169c-0.441-0.124-0.718-0.43-0.829-0.916v0c-0.004-0.132 0.024-0.269 0.085-0.412v0l4.234-15.057c0.119-0.422 0.409-0.693 0.87-0.811v0c0.146-0.028 0.302-0.019 0.469 0.028v0l4.088 1.15c4.51 1.268 6.923 3.711 7.239 7.327v0c0.096 1.18-0.063 2.471-0.479 3.873v0c-0.79 2.809-2.185 4.712-4.184 5.71v0c-2 0.998-4.445 1.09-7.337 0.277zM111.343 4.39l-3.892 13.838 3.33 0.937c3.352 0.943 5.812 0.164 7.378-2.337v0c0.485-0.768 0.884-1.709 1.198-2.822 0.313-1.113 0.423-2.156 0.33-3.127-0.084-0.976-0.357-1.847-0.818-2.612v0c-0.891-1.424-2.5-2.464-4.829-3.119v0zM125.973 25.893l8.269-13.324c0.137-0.22 0.31-0.355 0.521-0.404v0c0.357-0.084 0.677-0.064 0.961 0.057v0l4.879 3.028c1.355 0.841 2.243 1.893 2.665 3.156v0c0.423 1.209 0.279 2.387-0.433 3.532v0c-0.519 0.836-1.224 1.399-2.116 1.69v0c-0.948 0.28-1.92 0.252-2.916-0.084v0l-0.021 0.033c1.484 1.327 2.092 2.804 1.826 4.431v0c-0.106 0.498-0.319 1.006-0.642 1.526-0.322 0.52-0.72 0.977-1.192 1.372-0.481 0.397-1.039 0.654-1.673 0.768v0c-1.45 0.281-3.019-0.102-4.707-1.15v0l-5.074-3.148c-0.22-0.137-0.369-0.331-0.448-0.583v0c-0.105-0.323-0.071-0.623 0.101-0.9zM131.645 20.837l-3.517 5.666 3.194 1.982c1.406 0.873 2.52 1.283 3.343 1.23v0c1 0.002 1.822-0.516 2.467-1.555v0c1.009-1.626 0.62-3.147-1.17-4.562v0c-0.546-0.393-1.18-0.815-1.903-1.263v0zM140.816 20.92v0c1.058-1.705 0.401-3.267-1.973-4.686v0l-3.134-1.945-3.202 5.159 3.16 1.96c1.559 0.967 2.916 1.156 4.071 0.568v0c0.41-0.207 0.769-0.559 1.078-1.056zM149.954 44.454l0.026 0.03 13.815-3.86c0.787-0.209 1.313-0.311 1.577-0.307v0c0.489 0.076 0.855 0.259 1.097 0.55 0.248 0.295 0.404 0.55 0.471 0.763 0.066 0.213 0.09 0.428 0.07 0.643v0c-0.046 0.524-0.304 0.983-0.772 1.376v0l-11.417 9.564c-0.25 0.209-0.504 0.283-0.763 0.223-0.26-0.051-0.473-0.176-0.639-0.375-0.166-0.199-0.25-0.428-0.251-0.688-0.002-0.25 0.123-0.48 0.372-0.689v0l11.219-9.397-15.068 4.182c-0.671 0.224-1.217 0.084-1.64-0.421v0c-0.363-0.433-0.397-0.986-0.101-1.658v0l6.738-14.032-11.173 9.359c-0.25 0.209-0.504 0.283-0.762 0.223-0.26-0.051-0.473-0.176-0.639-0.375-0.166-0.199-0.252-0.43-0.257-0.695-0.014-0.265 0.103-0.503 0.353-0.712v0l11.417-9.564c0.734-0.615 1.426-0.74 2.078-0.375v0c0.184 0.158 0.368 0.325 0.55 0.501 0.177 0.181 0.307 0.371 0.388 0.572 0.081 0.201 0.123 0.4 0.124 0.598v0c-0.002 0.34-0.177 0.911-0.526 1.716v0zM170.12 57.557v0c-0.427 0.167-0.773 0.467-1.039 0.9-0.26 0.43-0.426 0.916-0.499 1.459-0.067 0.54-0.078 1.13-0.034 1.77 0.038 0.642 0.077 1.316 0.117 2.02 0.049 0.709 0.069 1.415 0.06 2.118-0.004 0.701-0.101 1.346-0.291 1.935v0c-0.409 1.288-1.291 2.198-2.646 2.729v0c-0.65 0.255-1.325 0.344-2.025 0.269-0.697-0.084-1.344-0.323-1.941-0.717v0c-1.247-0.796-2.237-2.128-2.97-3.997v0c-0.691-1.763-0.853-3.488-0.486-5.174v0c0.201-1.035 0.484-1.625 0.849-1.768v0c0.328-0.129 0.654-0.071 0.978 0.174v0c0.112 0.049 0.192 0.135 0.241 0.259 0.049 0.124 0.05 0.273 0.004 0.448-0.043 0.181-0.097 0.399-0.162 0.652-0.067 0.248-0.13 0.551-0.189 0.91-0.057 0.365-0.093 0.736-0.11 1.113v0c-0.004 0.937 0.155 1.788 0.477 2.555 0.319 0.76 0.624 1.354 0.913 1.783 0.281 0.425 0.614 0.773 0.998 1.044v0c0.833 0.559 1.659 0.692 2.48 0.398v0c1.009-0.395 1.593-1.199 1.753-2.411v0c0.067-0.54 0.087-1.126 0.06-1.758-0.026-0.632-0.068-1.294-0.125-1.985-0.063-0.689-0.08-1.389-0.052-2.1 0.026-0.717 0.13-1.379 0.314-1.986v0c0.395-1.304 1.212-2.199 2.449-2.684v0c0.65-0.255 1.321-0.336 2.014-0.244 0.693 0.092 1.327 0.344 1.902 0.754v0c1.167 0.756 2.069 1.919 2.706 3.49v0c0.9 2.296 0.884 4.432-0.046 6.41v0c-0.092 0.129-0.213 0.223-0.361 0.281-0.155 0.061-0.284 0.104-0.388 0.131-0.108 0.035-0.232 0.019-0.372-0.047v0c-0.241-0.07-0.407-0.219-0.497-0.448-0.092-0.235-0.036-0.546 0.17-0.934v0c0.221-0.857 0.323-1.515 0.308-1.973v0c0.01-0.939-0.136-1.795-0.44-2.569v0c-0.388-0.99-0.926-1.761-1.613-2.312v0c-0.824-0.662-1.659-0.827-2.507-0.495zM10.608 127.099l-3.474-9.906c-0.139-0.395-0.166-0.734-0.082-1.017v0c0.163-0.339 0.379-0.556 0.649-0.65 0.27-0.095 0.552-0.113 0.847-0.054v0l16.653 4.618-3.006-8.57c-0.092-0.263-0.072-0.506 0.061-0.73 0.127-0.221 0.3-0.369 0.52-0.446 0.22-0.077 0.445-0.075 0.678 0.005 0.239 0.078 0.409 0.262 0.51 0.55v0l3.55 10.122c0.117 0.332 0.117 0.635 0.001 0.908-0.109 0.271-0.267 0.442-0.474 0.515v0c-0.376 0.132-0.72 0.147-1.03 0.045v0l-16.691-4.636 3.029 8.635c0.114 0.326 0.1 0.585-0.045 0.777-0.144 0.191-0.329 0.327-0.555 0.406-0.226 0.079-0.449 0.076-0.668-0.009-0.214-0.087-0.371-0.275-0.473-0.563zM21.339 145.521l-5.228-8.135c-0.144-0.224-0.19-0.455-0.138-0.693v0c0.058-0.401 0.208-0.679 0.448-0.833v0l13.259-8.522c0.347-0.223 0.742-0.216 1.186 0.02v0c0.105 0.09 0.212 0.176 0.319 0.257v0l5.072 7.892c0.18 0.28 0.227 0.538 0.142 0.774-0.079 0.233-0.217 0.412-0.413 0.537-0.196 0.126-0.423 0.165-0.682 0.119-0.261-0.038-0.469-0.177-0.624-0.417v0l-4.463-6.944-5.006 3.218 4.247 6.608c0.18 0.28 0.23 0.536 0.15 0.769-0.074 0.229-0.211 0.408-0.412 0.538v0c-0.184 0.119-0.396 0.152-0.635 0.1-0.248-0.054-0.449-0.201-0.604-0.442v0l-4.247-6.608-5.477 3.519 4.657 7.246c0.169 0.263 0.211 0.512 0.126 0.749-0.085 0.236-0.228 0.419-0.43 0.548-0.201 0.129-0.422 0.173-0.663 0.13-0.235-0.046-0.43-0.19-0.584-0.43zM29.783 153.046l10.587-11.676c0.295-0.325 0.7-0.415 1.215-0.271v0c0.143 0.04 0.271 0.111 0.384 0.214v0l3.973 3.602c2.147 1.946 3.079 3.828 2.796 5.644v0c-0.168 0.709-0.58 1.426-1.236 2.149-0.652 0.719-1.444 1.118-2.376 1.196-0.928 0.074-1.911-0.198-2.948-0.815v0l-0.067 0.074c0.713 0.916 1.026 1.778 0.938 2.586v0c-0.095 0.659-0.413 1.361-0.955 2.108-0.547 0.751-0.972 1.344-1.275 1.777v0c-0.464 0.611-0.982 1.281-1.553 2.01v0c-0.25 0.276-0.521 0.402-0.815 0.379-0.288-0.028-0.538-0.138-0.75-0.331-0.207-0.188-0.336-0.416-0.386-0.687-0.051-0.27 0.016-0.542 0.2-0.814v0c0.615-0.806 1.158-1.52 1.631-2.141 0.473-0.621 0.858-1.159 1.156-1.616 0.298-0.457 0.506-0.869 0.624-1.237 0.119-0.359 0.149-0.699 0.092-1.021v0c-0.102-0.541-0.619-1.261-1.553-2.161v0l-3.146-2.853-4.882 5.384c-0.353 0.389-0.75 0.486-1.192 0.291v0c-0.13-0.055-0.271-0.151-0.424-0.29-0.158-0.143-0.267-0.359-0.328-0.647-0.057-0.294 0.04-0.578 0.29-0.854zM37.471 147.892l2.437 2.21c1.546 1.402 2.808 2.102 3.787 2.101v0c0.697 0.013 1.373-0.307 2.028-0.96v0c0.871-0.96 1.085-1.919 0.642-2.876v0c-0.21-0.55-0.499-1.013-0.865-1.39-0.367-0.377-0.666-0.671-0.897-0.881v0l-3.021-2.739zM54.781 158.429c-0.571 0.738-1.039 1.499-1.404 2.282-0.367 0.789-0.651 1.643-0.851 2.562-0.197 0.927-0.213 1.811-0.047 2.65 0.16 0.837 0.494 1.601 1.001 2.291 0.498 0.694 1.235 1.268 2.211 1.723 0.97 0.452 1.893 0.65 2.768 0.596 0.867-0.051 1.666-0.287 2.398-0.709 0.732-0.422 1.395-1.004 1.989-1.746 0.598-0.733 1.081-1.495 1.448-2.284 0.365-0.783 0.634-1.637 0.808-2.56 0.179-0.921 0.195-1.797 0.047-2.628-0.148-0.831-0.48-1.598-0.996-2.3-0.525-0.699-1.272-1.274-2.243-1.726-0.976-0.454-1.888-0.652-2.737-0.593-0.858 0.063-1.658 0.302-2.402 0.718-0.75 0.413-1.413 0.988-1.99 1.724zM51.157 159.622v0c0.536-1.151 1.217-2.164 2.043-3.04 0.817-0.873 1.734-1.52 2.751-1.941v0c2.073-0.926 4.307-0.843 6.701 0.25v0c2.428 1.131 3.963 2.802 4.605 5.014v0c0.314 1.041 0.395 2.152 0.24 3.334-0.151 1.191-0.495 2.361-1.031 3.512v0c-0.547 1.175-1.235 2.218-2.062 3.13-0.819 0.909-1.724 1.569-2.714 1.98v0c-2.095 0.909-4.356 0.798-6.785-0.332v0c-2.404-1.119-3.911-2.763-4.521-4.932v0c-0.324-1.067-0.411-2.204-0.26-3.409 0.142-1.202 0.486-2.391 1.033-3.566zM79.526 170.313l-6.12 6.493c-0.264 0.298-0.581 0.42-0.949 0.367v0c-0.414-0.06-0.702-0.299-0.863-0.718v0c-0.021-0.137-0.02-0.282 0.001-0.433 0.022-0.151 0.121-0.305 0.298-0.461v0l6.6-6.827-4.13-7.844c-0.107-0.19-0.15-0.361-0.128-0.512 0.022-0.151 0.081-0.281 0.176-0.388 0.096-0.107 0.214-0.208 0.356-0.301v0c0.275-0.182 0.52-0.258 0.737-0.227v0c0.454 0.065 0.787 0.291 1.001 0.678v0l3.675 7.437 5.867-6.067c0.307-0.312 0.611-0.446 0.914-0.402v0c0.434 0.062 0.722 0.302 0.864 0.718v0c0.047 0.141 0.066 0.244 0.056 0.31v0c-0.034 0.237-0.148 0.422-0.342 0.555v0l-6.342 6.432 4.381 8.343c0.107 0.19 0.15 0.361 0.128 0.512-0.022 0.151-0.074 0.281-0.156 0.391-0.083 0.109-0.198 0.21-0.346 0.303v0c-0.288 0.18-0.59 0.248-0.905 0.202-0.316-0.045-0.582-0.251-0.798-0.618v0zM98.303 172.93l-4.883 0.338c-0.265 0.018-0.487-0.056-0.665-0.224-0.171-0.161-0.265-0.368-0.283-0.62-0.017-0.252 0.054-0.467 0.215-0.644 0.161-0.171 0.365-0.265 0.61-0.283v0l4.883-0.337c0.265-0.018 0.49 0.046 0.673 0.193 0.19 0.153 0.294 0.356 0.312 0.608 0.017 0.252-0.051 0.47-0.205 0.654-0.153 0.19-0.373 0.296-0.657 0.315zM113.34 175.514l-4.176 1.169c-0.448 0.125-0.846 0.009-1.195-0.349v0c-0.081-0.115-0.129-0.25-0.144-0.405v0l-4.249-15.177c-0.118-0.422-0.011-0.804 0.321-1.146v0c0.11-0.1 0.252-0.174 0.425-0.222v0l4.118-1.153c4.538-1.27 7.892-0.432 10.062 2.515v0c0.704 0.962 1.241 2.154 1.612 3.576v0c0.794 2.835 0.594 5.203-0.6 7.104v0c-1.198 1.909-3.256 3.272-6.174 4.088zM105.875 160.792l3.902 13.939 3.36-0.941c3.379-0.946 5.085-2.904 5.116-5.873v0c0.02-0.916-0.127-1.935-0.441-3.054-0.314-1.12-0.763-2.074-1.35-2.863-0.588-0.795-1.282-1.398-2.08-1.809v0c-1.511-0.764-3.438-0.818-5.78-0.163v0zM131.28 167.141l-8.31-13.428c-0.14-0.226-0.185-0.444-0.135-0.654v0c0.084-0.357 0.244-0.635 0.479-0.836v0l4.925-3.048c1.362-0.843 2.707-1.171 4.034-0.984v0c1.286 0.158 2.285 0.813 2.998 1.966v0c0.521 0.842 0.712 1.732 0.574 2.669v0c-0.168 0.979-0.627 1.842-1.377 2.588v0l0.021 0.034c1.864-0.739 3.468-0.622 4.813 0.35v0c0.404 0.312 0.769 0.731 1.095 1.257 0.322 0.52 0.554 1.084 0.695 1.692 0.142 0.608 0.125 1.224-0.052 1.849v0c-0.401 1.436-1.452 2.681-3.152 3.733v0l-5.12 3.169c-0.22 0.136-0.461 0.184-0.722 0.142v0c-0.336-0.05-0.591-0.216-0.766-0.499zM129.258 159.763l3.531 5.705 3.221-1.993c1.418-0.878 2.29-1.699 2.615-2.463v0c0.453-0.898 0.356-1.869-0.291-2.914v0c-1.018-1.645-2.564-1.977-4.639-0.998v0c-0.607 0.321-1.274 0.707-2.004 1.158v0zM133.443 151.522v0c-1.06-1.712-2.763-1.819-5.109-0.319v0l-3.162 1.957 3.221 5.205 3.196-1.978c1.565-0.969 2.343-2.106 2.331-3.413v0c-0.006-0.465-0.165-0.949-0.477-1.452zM155.035 144.121l0.026-0.031-6.259-13.026c-0.344-0.748-0.534-1.251-0.57-1.507v0c-0.015-0.499 0.101-0.896 0.349-1.191 0.248-0.295 0.471-0.494 0.67-0.596 0.203-0.107 0.415-0.168 0.635-0.183v0c0.524-0.046 1.021 0.128 1.489 0.521v0l11.49 9.648c0.249 0.209 0.369 0.449 0.36 0.719-0.005 0.265-0.093 0.499-0.264 0.702-0.167 0.199-0.378 0.321-0.633 0.366-0.255 0.046-0.508-0.036-0.757-0.245v0l-11.292-9.481 6.8 14.21c0.333 0.627 0.288 1.192-0.135 1.696v0c-0.363 0.433-0.904 0.565-1.621 0.396v0l-15.1-4.217 11.239 9.436c0.249 0.209 0.369 0.449 0.36 0.719-0.005 0.265-0.091 0.496-0.258 0.695-0.171 0.204-0.386 0.331-0.646 0.381-0.264 0.056-0.521-0.021-0.77-0.23v0l-11.491-9.647c-0.738-0.62-0.982-1.285-0.733-1.995v0c0.123-0.209 0.256-0.419 0.398-0.629 0.147-0.206 0.312-0.367 0.496-0.482 0.188-0.12 0.382-0.196 0.582-0.228v0c0.335-0.057 0.93 0.013 1.787 0.212v0zM156.772 121.52v0c0.433 0.17 0.894 0.187 1.384 0.051 0.492-0.142 0.945-0.389 1.361-0.74 0.425-0.354 0.842-0.78 1.251-1.275 0.405-0.505 0.834-1.032 1.287-1.584 0.452-0.551 0.922-1.084 1.41-1.598 0.488-0.515 1.003-0.927 1.546-1.235v0c1.182-0.664 2.457-0.727 3.823-0.19v0c0.656 0.258 1.215 0.652 1.677 1.184 0.46 0.538 0.773 1.157 0.941 1.859v0c0.376 1.44 0.195 3.101-0.544 4.981v0c-0.698 1.775-1.76 3.161-3.187 4.157v0c-0.86 0.626-1.473 0.867-1.838 0.723v0c-0.328-0.129-0.529-0.397-0.604-0.805v0c-0.049-0.112-0.049-0.23 0-0.354 0.046-0.118 0.148-0.231 0.305-0.34 0.161-0.101 0.35-0.219 0.568-0.355 0.218-0.136 0.471-0.318 0.761-0.547 0.29-0.229 0.57-0.479 0.842-0.751v0c0.649-0.688 1.116-1.422 1.401-2.203 0.288-0.787 0.471-1.436 0.551-1.947 0.086-0.509 0.077-0.995-0.028-1.456v0c-0.228-0.982-0.745-1.646-1.552-1.992v0c-1.021-0.401-2.003-0.209-2.947 0.577v0c-0.425 0.354-0.843 0.772-1.253 1.253-0.413 0.488-0.835 1.007-1.267 1.559-0.431 0.552-0.9 1.082-1.406 1.589-0.507 0.508-1.034 0.922-1.581 1.243v0c-1.192 0.688-2.409 0.788-3.653 0.3v0c-0.656-0.258-1.206-0.656-1.651-1.196-0.445-0.539-0.745-1.157-0.899-1.853v0c-0.336-1.36-0.202-2.839 0.404-4.436v0c0.907-2.307 2.383-3.873 4.428-4.697v0c0.155-0.032 0.307-0.019 0.455 0.039 0.155 0.061 0.283 0.115 0.386 0.163 0.094 0.051 0.173 0.15 0.237 0.297v0c0.123 0.213 0.139 0.437 0.047 0.671-0.092 0.235-0.342 0.426-0.75 0.573v0c-0.751 0.476-1.281 0.889-1.59 1.239v0c-0.643 0.69-1.117 1.425-1.423 2.204v0c-0.394 1.002-0.526 1.939-0.398 2.811v0c0.151 1.052 0.653 1.745 1.506 2.081zM2.793 92.112c0-3.79 3.072-6.862 6.862-6.863 3.79 0 6.862 3.072 6.863 6.863 0 3.79-3.072 6.862-6.863 6.862-3.79 0-6.862-3.072-6.862-6.862zM163.296 92.112c0-3.79 3.072-6.862 6.862-6.863 3.79 0 6.862 3.072 6.863 6.863 0 3.79-3.072 6.862-6.863 6.862-3.79 0-6.862-3.072-6.862-6.862z" fill="#8dbdff" data-fill-palette-color="primary"></path></svg></g><g transform="matrix(1,0,0,1,0,189.94285368)"><svg viewBox="0 0 178.88760000000002 59.62920000000001" height="59.62920000000001" width="178.88760000000002"><g transform="matrix(1,0,0,1,0,0)"><svg width="178.88760000000002" viewBox="5.400000095367432 -35.54999923706055 109.18999481201172 36.39999771118164" height="59.62920000000001" data-palette-color="#77d4fc"><path d="M5.4-12.6L5.4-18.7 24.6-18.7 24.6-12.6 5.4-12.6ZM45-35.55Q51.15-35.55 54.32-30.8 57.5-26.05 57.5-17.4L57.5-17.4Q57.5-8.7 54.32-3.93 51.15 0.85 45 0.85L45 0.85Q38.85 0.85 35.67-3.93 32.5-8.7 32.5-17.4L32.5-17.4Q32.5-26.05 35.67-30.8 38.85-35.55 45-35.55L45-35.55ZM45-29.8Q42.5-29.8 41.32-26.93 40.15-24.05 40.15-17.4L40.15-17.4Q40.15-10.55 41.32-7.7 42.5-4.85 45-4.85L45-4.85Q47.55-4.85 48.67-7.7 49.8-10.55 49.8-17.4L49.8-17.4Q49.8-24.15 48.62-26.98 47.45-29.8 45-29.8L45-29.8ZM44.95-20.5Q46.35-20.5 47.3-19.55 48.25-18.6 48.25-17.25L48.25-17.25Q48.25-15.85 47.3-14.9 46.35-13.95 44.95-13.95L44.95-13.95Q43.55-13.95 42.62-14.9 41.7-15.85 41.7-17.25L41.7-17.25Q41.7-18.6 42.62-19.55 43.55-20.5 44.95-20.5L44.95-20.5ZM60.95-34.65L69.8-34.65 75-23.55 80.34-34.65 89-34.65 79.8-18.75 89.84 0 81 0 74.9-13.2 68.9 0 60.2 0 70-18.4 60.95-34.65ZM95.39-12.6L95.39-18.7 114.59-18.7 114.59-12.6 95.39-12.6Z" opacity="1" transform="matrix(1,0,0,1,0,0)" fill="#77d4fc" class="undefined-text-1" data-fill-palette-color="secondary" id="text-1"></path></svg></g></svg></g></svg></g></svg></g><g></g></svg></g></svg></g></svg></g></svg><rect width="448" height="360" fill="none" stroke="none" visibility="hidden"></rect></g></svg></g></svg>